<svg xmlns="http://www.w3.org/2000/svg" xmlns:xlink="http://www.w3.org/1999/xlink" fill="none" version="1.1" width="75.39999389648438" height="28.4000244140625" viewBox="0 0 75.39999389648438 28.4000244140625"><defs><linearGradient x1="0.5" y1="0" x2="0.5" y2="1" id="master_svg0_11_12906"><stop offset="0%" stop-color="#B6B2FF" stop-opacity="1"/><stop offset="100%" stop-color="#94FBFF" stop-opacity="1"/></linearGradient></defs><g><path d="M0.5,27.4000244140625L24,27.4000244140625Q26.2889,27.4000244140625,28.4171,26.5575244140625Q30.7279,25.6426244140625,32.485299999999995,23.8853244140625Q34.2426,22.1279244140625,35.1575,19.8171244140625Q36,17.688924414062498,36,15.4000244140625Q36,12.9203244140625,36.9128,10.6147944140625Q37.9038,8.1114344140625,39.8076,6.2076344140625Q41.7114,4.3038344140625,44.2148,3.3127764140625002Q46.5203,2.4000244140625,49,2.4000244140625L72.5,2.4000244140625L72.5,3.4000244140625L49,3.4000244140625Q46.7111,3.4000244140625,44.5829,4.2425644140625Q42.2721,5.1573844140625,40.5147,6.9147444140625Q38.7574,8.6720944140625,37.8425,10.9828844140625Q37,13.1111244140625,37,15.4000244140625Q37,17.8797244140625,36.0872,20.1852244140625Q35.0962,22.6886244140625,33.1924,24.5924244140625Q31.2886,26.4962244140625,28.7852,27.4872244140625Q26.4797,28.4000244140625,24,28.4000244140625L0.5,28.4000244140625L0.5,27.4000244140625ZM1,27.9000244140625Q1,27.9492244140625,0.9903930000000001,27.9975244140625Q0.980785,28.0458244140625,0.96194,28.0913244140625Q0.943094,28.1368244140625,0.915735,28.1778244140625Q0.888375,28.2187244140625,0.853553,28.2536244140625Q0.818731,28.2884244140625,0.777785,28.3157244140625Q0.736839,28.3431244140625,0.691342,28.3619244140625Q0.645845,28.3808244140625,0.5975451,28.3904244140625Q0.5492457,28.4000244140625,0.5,28.4000244140625Q0.4507543,28.4000244140625,0.4024549,28.3904244140625Q0.354155,28.3808244140625,0.308658,28.3619244140625Q0.263161,28.3431244140625,0.222215,28.3157244140625Q0.181269,28.2884244140625,0.146447,28.2536244140625Q0.11162499999999997,28.2187244140625,0.08426499999999998,28.1778244140625Q0.05690600000000001,28.1368244140625,0.03805999999999998,28.0913244140625Q0.019214999999999982,28.0458244140625,0.009606999999999977,27.9975244140625Q0,27.9492244140625,0,27.9000244140625Q0,27.8508244140625,0.009606999999999977,27.8025244140625Q0.019214999999999982,27.7542244140625,0.03805999999999998,27.7087244140625Q0.05690600000000001,27.6632244140625,0.08426499999999998,27.6222244140625Q0.11162499999999997,27.5813244140625,0.146447,27.5464244140625Q0.181269,27.5116244140625,0.222215,27.4843244140625Q0.263161,27.4569244140625,0.308658,27.4381244140625Q0.354155,27.4192244140625,0.4024549,27.4096244140625Q0.4507543,27.4000244140625,0.5,27.4000244140625Q0.5492457,27.4000244140625,0.5975451,27.4096244140625Q0.645845,27.4192244140625,0.691342,27.4381244140625Q0.736839,27.4569244140625,0.777785,27.4843244140625Q0.818731,27.5116244140625,0.853553,27.5464244140625Q0.888375,27.5813244140625,0.915735,27.6222244140625Q0.943094,27.6632244140625,0.96194,27.7087244140625Q0.980785,27.7542244140625,0.9903930000000001,27.8025244140625Q1,27.8508244140625,1,27.9000244140625ZM69.6,2.9000244140625L72.5,0.000024414062500088818L75.4,2.9000244140625L72.5,5.8000244140625L69.6,2.9000244140625Z" fill="url(#master_svg0_11_12906)" fill-opacity="1"/></g></svg>