<svg xmlns="http://www.w3.org/2000/svg" xmlns:xlink="http://www.w3.org/1999/xlink" fill="none" version="1.1" width="74.39999389648438" height="31.4000244140625" viewBox="0 0 74.39999389648438 31.4000244140625"><defs><linearGradient x1="0.5" y1="0" x2="0.5" y2="1" id="master_svg0_11_12906"><stop offset="0%" stop-color="#B6B2FF" stop-opacity="1"/><stop offset="100%" stop-color="#94FBFF" stop-opacity="1"/></linearGradient></defs><g><path d="M73.89999389648438,31.4000244140625L52.399993896484375,31.4000244140625Q49.634193896484376,31.4000244140625,47.06259389648437,30.3819244140625Q44.27039389648437,29.2765244140625,42.146993896484375,27.1530244140625Q40.023493896484375,25.0296244140625,38.91809389648437,22.2374244140625Q37.899993896484375,19.6658244140625,37.899993896484375,16.9000244140625Q37.899993896484375,14.3250244140625,36.95209389648438,11.9307444140625Q35.92299389648438,9.3311044140625,33.94589389648438,7.3540844140625Q31.968893896484374,5.3770544140625,29.369293896484375,4.3478844140625Q26.974993896484374,3.4000244140625,24.399993896484375,3.4000244140625L2.899993896484375,3.4000244140625L2.899993896484375,2.4000244140625L24.399993896484375,2.4000244140625Q27.165793896484374,2.4000244140625,29.737393896484374,3.4180944140625Q32.52959389648437,4.5235044140625,34.652993896484375,6.6469744140625Q36.776493896484375,8.7704444140625,37.88189389648438,11.5626544140625Q38.899993896484375,14.1342244140625,38.899993896484375,16.9000244140625Q38.899993896484375,19.4750244140625,39.84789389648437,21.8693244140625Q40.877093896484375,24.4689244140625,42.85409389648437,26.4459244140625Q44.831093896484376,28.4230244140625,47.43069389648438,29.4521244140625Q49.82499389648437,30.4000244140625,52.399993896484375,30.4000244140625L73.89999389648438,30.4000244140625L73.89999389648438,31.4000244140625ZM74.39999389648438,30.9000244140625Q74.39999389648438,30.9492244140625,74.39039389648437,30.9975244140625Q74.38079389648438,31.0458244140625,74.36189389648437,31.0913244140625Q74.34309389648438,31.1368244140625,74.31569389648438,31.1778244140625Q74.28839389648438,31.2187244140625,74.25349389648437,31.2536244140625Q74.21869389648438,31.2884244140625,74.17779389648437,31.3157244140625Q74.13679389648438,31.3431244140625,74.09129389648437,31.3619244140625Q74.04579389648437,31.3808244140625,73.99749389648437,31.3904244140625Q73.94919389648437,31.4000244140625,73.89999389648438,31.4000244140625Q73.85079389648438,31.4000244140625,73.80249389648438,31.3904244140625Q73.75409389648438,31.3808244140625,73.70859389648437,31.3619244140625Q73.66319389648437,31.3431244140625,73.62219389648438,31.3157244140625Q73.58129389648437,31.2884244140625,73.54639389648437,31.2536244140625Q73.51159389648437,31.2187244140625,73.48429389648437,31.1778244140625Q73.45689389648437,31.1368244140625,73.43809389648438,31.0913244140625Q73.41919389648437,31.0458244140625,73.40959389648438,30.9975244140625Q73.39999389648438,30.9492244140625,73.39999389648438,30.9000244140625Q73.39999389648438,30.8508244140625,73.40959389648438,30.8025244140625Q73.41919389648437,30.7542244140625,73.43809389648438,30.7087244140625Q73.45689389648437,30.6632244140625,73.48429389648437,30.6222244140625Q73.51159389648437,30.5813244140625,73.54639389648437,30.5464244140625Q73.58129389648437,30.5116244140625,73.62219389648438,30.4843244140625Q73.66319389648437,30.4569244140625,73.70859389648437,30.4381244140625Q73.75409389648438,30.4192244140625,73.80249389648438,30.4096244140625Q73.85079389648438,30.4000244140625,73.89999389648438,30.4000244140625Q73.94919389648437,30.4000244140625,73.99749389648437,30.4096244140625Q74.04579389648437,30.4192244140625,74.09129389648437,30.4381244140625Q74.13679389648438,30.4569244140625,74.17779389648437,30.4843244140625Q74.21869389648438,30.5116244140625,74.25349389648437,30.5464244140625Q74.28839389648438,30.5813244140625,74.31569389648438,30.6222244140625Q74.34309389648438,30.6632244140625,74.36189389648437,30.7087244140625Q74.38079389648438,30.7542244140625,74.39039389648437,30.8025244140625Q74.39999389648438,30.8508244140625,74.39999389648438,30.9000244140625ZM5.799993896484375,2.9000244140625L2.899993896484375,5.8000244140625L-0.000006103515624911182,2.9000244140625L2.899993896484375,0.000024414062500088818L5.799993896484375,2.9000244140625Z" fill="url(#master_svg0_11_12906)" fill-opacity="1"/></g></svg>