<svg xmlns="http://www.w3.org/2000/svg" xmlns:xlink="http://www.w3.org/1999/xlink" fill="none" version="1.1" width="5.79998779296875" height="50.4000244140625" viewBox="0 0 5.79998779296875 50.4000244140625"><defs><linearGradient x1="0.5" y1="0" x2="0.5" y2="1" id="master_svg0_11_12906"><stop offset="0%" stop-color="#B6B2FF" stop-opacity="1"/><stop offset="100%" stop-color="#94FBFF" stop-opacity="1"/></linearGradient></defs><g><path d="M2.399993896484375,49.9000244140625L2.399993896484375,2.9000244140625L3.399993896484375,2.9000244140625L3.399993896484375,49.9000244140625L2.399993896484375,49.9000244140625ZM3.399993896484375,49.9000244140625Q3.399993896484375,49.9492244140625,3.390386896484375,49.9975244140625Q3.380778896484375,50.0458244140625,3.3619338964843752,50.0913244140625Q3.343087896484375,50.1368244140625,3.315728896484375,50.1778244140625Q3.288368896484375,50.2187244140625,3.253546896484375,50.2535244140625Q3.218724896484375,50.2884244140625,3.177778896484375,50.3157244140625Q3.136832896484375,50.3431244140625,3.091335896484375,50.3619244140625Q3.045838896484375,50.3808244140625,2.997538996484375,50.3904244140625Q2.949239596484375,50.4000244140625,2.899993896484375,50.4000244140625Q2.850748196484375,50.4000244140625,2.802448796484375,50.3904244140625Q2.754148896484375,50.3808244140625,2.708651896484375,50.3619244140625Q2.663154896484375,50.3431244140625,2.622208896484375,50.3157244140625Q2.581262896484375,50.2884244140625,2.546440896484375,50.2535244140625Q2.511618896484375,50.2187244140625,2.484258896484375,50.1778244140625Q2.456899896484375,50.1368244140625,2.4380538964843748,50.0913244140625Q2.419208896484375,50.0458244140625,2.409600896484375,49.9975244140625Q2.399993896484375,49.9492244140625,2.399993896484375,49.9000244140625Q2.399993896484375,49.8508244140625,2.409600896484375,49.8025244140625Q2.419208896484375,49.7541244140625,2.4380538964843748,49.7087244140625Q2.456899896484375,49.6632244140625,2.484258896484375,49.6222244140625Q2.511618896484375,49.5813244140625,2.546440896484375,49.5464244140625Q2.581262896484375,49.5116244140625,2.622208896484375,49.4843244140625Q2.663154896484375,49.4569244140625,2.708651896484375,49.4381244140625Q2.754148896484375,49.4192244140625,2.802448796484375,49.4096244140625Q2.850748196484375,49.4000244140625,2.899993896484375,49.4000244140625Q2.949239596484375,49.4000244140625,2.997538996484375,49.4096244140625Q3.045838896484375,49.4192244140625,3.091335896484375,49.4381244140625Q3.136832896484375,49.4569244140625,3.177778896484375,49.4843244140625Q3.218724896484375,49.5116244140625,3.253546896484375,49.5464244140625Q3.288368896484375,49.5813244140625,3.315728896484375,49.6222244140625Q3.343087896484375,49.6632244140625,3.3619338964843752,49.7087244140625Q3.380778896484375,49.7541244140625,3.390386896484375,49.8025244140625Q3.399993896484375,49.8508244140625,3.399993896484375,49.9000244140625ZM2.899993896484375,5.8000244140625L-0.000006103515624911182,2.9000244140625L2.899993896484375,0.000024414062500088818L5.799993896484375,2.9000244140625L2.899993896484375,5.8000244140625Z" fill="url(#master_svg0_11_12906)" fill-opacity="1"/></g></svg>