<svg t="1718524816948" class="icon" viewBox="0 0 1024 1024" version="1.1" xmlns="http://www.w3.org/2000/svg" p-id="88166" width="24" height="24"><path d="M471.6544 862.6688c4.1472-9.7792 8.9088-19.0464 12.032-28.8256 14.9504-46.7456-13.6192-97.024-61.0816-108.7488-4.0448-0.9728-8.3968-3.9936-10.8544-7.3728-10.1888-14.0288-22.9376-24.2688-39.1168-30.6688-3.072-1.2288-6.3488-4.5568-7.4752-7.6288-9.4208-25.088-26.368-42.1376-51.5584-51.4048-3.072-1.1264-6.1952-4.5568-7.424-7.6288-21.0432-53.7088-86.6304-73.8304-132.352-39.2704-12.544 9.5232-23.4496 22.2208-32.3072 35.328-10.496 15.5648-22.9888 22.1184-41.3696 19.1488-6.5536-1.024-13.4656-0.4608-20.1728-0.1024-14.1824 0.7168-29.5424-12.8-29.3888-30.0544 0.8192-97.6384 0.4096-195.2768 0.4096-292.9152 0-19.5584 7.6288-27.1872 27.2384-27.1872h150.7328c12.2368 0 15.872 5.6832 10.0352 16.7936-9.0112 17.1008-12.3904 35.1744-9.0112 54.0672 4.608 25.7536 20.2752 43.7248 43.6736 53.7088 40.7552 17.3568 81.9712 16.896 121.5488-3.6352 39.0656-20.224 77.312-42.0352 115.9168-63.1296 9.6768-5.2736 11.8272-4.8128 18.8928 3.84 78.1312 95.2832 156.416 190.464 234.3424 285.9008 11.9296 14.592 22.8864 30.1056 33.4848 45.7216 13.3632 19.7632 9.8304 45.1584-7.5776 61.4912-16.64 15.5648-42.7008 16.64-61.3888 2.4576-2.4576-1.8432-4.8128-3.7888-8.3968-6.6048 0.8704 24.1152-6.8096 43.008-28.9792 52.3776-21.5552 9.1136-41.0112 3.328-58.4192-13.1072 1.024 23.6544-5.9904 42.3424-27.9552 51.968-21.6576 9.472-40.8064 3.2768-58.7776-13.056 1.3312 24.7296-6.9632 42.9056-29.1328 52.6336-15.8208 7.0144-31.1808 4.9152-45.568-4.096z" fill="#A5ADF6" p-id="88167"></path><path d="M976.0256 434.2784v151.5008c0 17.2032-8.448 25.5488-25.8048 25.6-13.2096 0.0512-26.4704 0.7168-39.6288-0.1536-16.8448-1.1264-30.8736 3.84-43.1616 15.3088-7.7312 7.2192-9.4208 6.656-16.0768-1.536-95.8464-117.1968-191.6416-234.3936-287.488-351.6416-11.2128-13.7216-22.4256-15.9744-38.2464-7.2192-42.8544 23.6032-85.6576 47.3088-128.4096 70.9632-28.3136 15.6672-57.6512 18.6368-88.2176 7.3728-11.7248-4.3008-19.3536-12.288-20.6848-24.7808-1.2288-12.0832 1.9968-22.3744 12.7488-30.4128 50.0736-37.5808 99.6864-75.8272 149.6576-113.5616 49.7664-37.5808 103.9872-44.4928 161.9968-22.4256 79.3088 30.208 158.6176 60.3648 237.7216 91.136 25.0368 9.728 50.5344 14.7456 77.2608 14.08 8.5504-0.2048 17.1008-0.0512 25.6512 0 14.336 0.0512 22.6304 8.2432 22.6304 22.6816 0.1024 51.0976 0.0512 102.0928 0.0512 153.088zM341.248 839.424c-16.0256 7.9872-31.1296 8.2432-46.1824-2.4064-14.7456-10.496-20.0704-24.832-19.4048-43.3664-17.6128 7.7312-33.8944 8.3456-49.3568-2.6112-15.4112-10.9056-21.1968-25.9584-18.6368-45.3632-3.6352 1.1776-5.7856 1.8432-7.8848 2.56-26.624 9.0112-55.7568-8.448-60.2112-36.1984-1.6384-10.24 0.768-19.9168 6.912-27.904 12.4416-16.2304 25.0368-32.3584 38.6048-47.616 11.3664-12.7488 26.5216-15.5136 42.7008-10.752 24.8832 7.3216 34.7648 28.8256 24.6784 52.6336-0.768 1.792-0.256 4.1472-0.3584 6.2464 2.1504-0.1536 4.5056 0.1536 6.5024-0.512 21.9136-7.68 42.496 0.1536 52.4288 20.224 4.6592 9.472 5.0176 19.3024 2.2528 29.44-2.1504 7.8848-0.2048 10.3424 7.2704 7.8336 23.04-7.7312 50.176 11.5712 51.5072 36.5056 0.1024 1.536 0.6144 3.0208 1.0752 5.1712 4.3008-0.9728 8.448-2.048 12.6464-2.7648 16.4352-2.8672 29.6448 3.1232 39.4752 15.9744 10.3424 13.5168 11.4688 28.416 3.9936 43.8272-7.7824 16.128-17.7664 29.9008-36.864 33.5872-20.3264 3.8912-41.8816-8.6528-48.64-28.16-0.6656-1.9456-1.4848-3.84-2.5088-6.3488z" fill="#A5ADF6" p-id="88168"></path><path d="M797.8496 678.6048c-10.5984-15.6672-21.5552-31.1296-33.4848-45.7216-77.9264-95.4368-156.2112-190.6176-234.3424-285.9008-7.1168-8.6528-9.216-9.1136-18.8928-3.84-38.6048 21.0944-76.8512 42.9056-115.9168 63.1296a145.66912 145.66912 0 0 1-32.7168 12.288c-33.6896 28.7744-74.0864 77.0048-121.856 146.944 28.2624 5.4272 53.8112 24.8832 65.536 54.8352 1.2288 3.1232 4.4032 6.5024 7.424 7.6288 25.1904 9.2672 42.1376 26.368 51.5584 51.4048 1.1776 3.1232 4.4032 6.4512 7.4752 7.6288 16.128 6.4 28.928 16.64 39.1168 30.6688 2.4576 3.3792 6.8096 6.3488 10.8544 7.3728 47.4624 11.7248 76.032 62.0544 61.0816 108.7488-3.1232 9.7792-7.8848 19.0464-12.032 28.8256 14.3872 9.0112 29.696 11.1104 45.6192 4.1472 22.1184-9.728 30.464-27.8528 29.1328-52.6336 17.9712 16.3328 37.12 22.528 58.7776 13.056 21.9648-9.6256 28.9792-28.3136 27.9552-51.968 17.408 16.4352 36.8128 22.2208 58.4192 13.1072 22.1696-9.3696 29.8496-28.3136 28.9792-52.3776 3.584 2.816 5.9392 4.7616 8.3968 6.6048 18.688 14.1312 44.7488 13.1072 61.3888-2.4576 17.3568-16.3328 20.8896-41.728 7.5264-61.4912zM309.0432 344.5248c30.5664 11.264 59.904 8.2944 88.2176-7.3728 32.2048-17.8688 64.4608-35.6352 96.6656-53.4528-56.1664-26.2656-125.9008-23.552-125.9008-23.552h-28.3648c-12.8512 9.728-25.6512 19.5072-38.5536 29.184-10.7008 8.0384-13.9776 18.3296-12.7488 30.4128 1.3312 12.4416 8.96 20.4288 20.6848 24.7808z" fill="#635DF7" p-id="88169"></path><path d="M422.1952 852.8896c2.6112-3.8912 4.9152-8.0896 7.0656-12.544 7.424-15.4112 6.3488-30.3104-3.9936-43.8272-9.8304-12.8512-23.04-18.8416-39.4752-15.9744-4.1984 0.7168-8.2944 1.792-12.6464 2.7648-0.4608-2.1504-1.024-3.6352-1.0752-5.1712-1.28-24.9344-28.416-44.2368-51.5072-36.5056-7.4752 2.5088-9.4208 0.0512-7.2704-7.8336 2.7648-10.1376 2.4064-19.968-2.2528-29.44-9.9328-20.1216-30.5152-27.9552-52.4288-20.224-1.9968 0.7168-4.3008 0.3584-6.5024 0.512 0.1024-2.0992-0.4096-4.4032 0.3584-6.1952 10.0864-23.7568 0.2048-45.312-24.6784-52.6336-16.1792-4.7616-31.3344-1.9968-42.7008 10.752-7.3728 8.2944-14.4384 16.8448-21.4016 25.4976 40.0384 18.8416 120.8832 67.2768 258.5088 190.8224z" fill="#635DF7" p-id="88170"></path></svg>