<svg t="1720870773761" class="icon" viewBox="0 0 1024 1024" version="1.1" xmlns="http://www.w3.org/2000/svg" p-id="17525" width="256" height="256"><path d="M0 0h1024v1024H0V0z" fill="#202425" opacity=".01" p-id="17526"></path><path d="M136.533333 273.066667a68.266667 68.266667 0 0 1 68.266667-68.266667h614.4a68.266667 68.266667 0 0 1 68.266667 68.266667v580.266666a136.533333 136.533333 0 0 1-136.533334 136.533334H273.066667a136.533333 136.533333 0 0 1-136.533334-136.533334V273.066667z" fill="#FF7744" p-id="17527"></path><path d="M409.6 34.133333a34.133333 34.133333 0 0 0-34.133333 34.133334 34.133333 34.133333 0 0 1-34.133334 34.133333H136.533333a68.266667 68.266667 0 0 0-68.266666 68.266667v68.266666a68.266667 68.266667 0 0 0 68.266666 68.266667h750.933334a68.266667 68.266667 0 0 0 68.266666-68.266667V170.666667a68.266667 68.266667 0 0 0-68.266666-68.266667h-204.8a34.133333 34.133333 0 0 1-34.133334-34.133333 34.133333 34.133333 0 0 0-34.133333-34.133334h-204.8z" fill="#FFAA44" p-id="17528"></path><path d="M375.466667 460.8a51.2 51.2 0 0 1 51.2 51.2v273.066667a51.2 51.2 0 0 1-102.4 0v-273.066667a51.2 51.2 0 0 1 51.2-51.2z m273.066666 0a51.2 51.2 0 0 1 51.2 51.2v273.066667a51.2 51.2 0 0 1-102.4 0v-273.066667a51.2 51.2 0 0 1 51.2-51.2z" fill="#FFFFFF" p-id="17529"></path></svg>