<svg t="1720871657188" class="icon" viewBox="0 0 1024 1024" version="1.1" xmlns="http://www.w3.org/2000/svg" p-id="784" width="256" height="256"><path d="M350.72 20.288l44.352 43.776c13.056 12.992 30.72 20.288 49.152 20.288h465.152c38.592 0 69.888 31.36 69.888 69.952v720.064a104.96 104.96 0 0 1-104.896 104.96H104.896A104.96 104.96 0 0 1 0 874.304V69.952C0 31.296 31.36 0 69.952 0h231.552c18.432 0 36.096 7.296 49.28 20.288z" fill="#8A8A99" p-id="785"></path><path d="M151.552 163.2h676.16c38.656 0 69.952 31.36 69.952 69.952v594.56c0 38.656-31.36 69.952-69.952 69.952H151.552c-38.592 0-69.952-31.36-69.952-69.952v-594.56c0-38.656 31.36-69.952 69.952-69.952z" fill="#FFFFFF" p-id="786"></path><path d="M151.552 163.2h676.16c38.656 0 69.952 31.36 69.952 69.952v594.56c0 38.656-31.36 69.952-69.952 69.952H151.552c-38.592 0-69.952-31.36-69.952-69.952v-594.56c0-38.656 31.36-69.952 69.952-69.952z" fill="#FFFFFF" p-id="787"></path><path d="M186.432 233.152h606.464c19.328 0 34.944 15.68 34.944 34.944v69.952a34.944 34.944 0 0 1-34.944 35.008H186.432a34.944 34.944 0 0 1-35.008-35.008V268.16c0-19.264 15.68-34.944 35.008-34.944z m0 209.856h606.464c19.328 0 34.944 15.616 34.944 34.944v69.952a34.944 34.944 0 0 1-34.944 35.008H186.432a34.944 34.944 0 0 1-35.008-35.008V477.952c0-19.328 15.68-34.944 35.008-34.944z" fill="#EBEBEB" p-id="788"></path><path d="M116.544 603.84h837.568a69.952 69.952 0 0 1 68.928 81.408l-46.656 279.808a69.952 69.952 0 0 1-68.928 58.496H69.888A69.952 69.952 0 0 1 0.96 942.08l46.656-279.744a69.952 69.952 0 0 1 68.928-58.496z" fill="#90a7ff" p-id="789" data-spm-anchor-id="a313x.icontype_histories.0.i1.58a23a81P7LtTy" class="selected"></path></svg>