<svg t="1720710328469" class="icon" viewBox="0 0 1024 1024" version="1.1" xmlns="http://www.w3.org/2000/svg" p-id="37027" width="20" height="20"> <path d="M340.48 23.232l38.912 41.728c13.824 14.848 33.216 23.232 53.44 23.232h518.016c40.384 0 73.152 32.768 73.152 73.152v716.352A146.304 146.304 0 0 1 877.696 1024H146.304A146.304 146.304 0 0 1 0 877.696V73.152C0 32.768 32.768 0 73.152 0h213.888c20.224 0 39.616 8.448 53.44 23.232z" fill="#8A8A99" p-id="37028" ></path> <path d="M158.528 170.624h706.944c40.448 0 73.152 32.768 73.152 73.152v621.696c0 40.448-32.704 73.152-73.152 73.152H158.528a73.152 73.152 0 0 1-73.152-73.152V243.84c0-40.384 32.704-73.152 73.152-73.152z" fill="#FFFFFF" p-id="37029" ></path> <path d="M73.152 292.544h877.696c40.384 0 73.152 32.768 73.152 73.152v585.152c0 40.384-32.768 73.152-73.152 73.152H73.152A73.152 73.152 0 0 1 0 950.848V365.696c0-40.32 32.768-73.152 73.152-73.152z" fill="#B8B8CC" p-id="37030" ></path> </svg> 