<svg t="1718524719138" class="icon" viewBox="0 0 1024 1024" version="1.1" xmlns="http://www.w3.org/2000/svg" p-id="73198" width="24" height="24"><path d="M689.152 365.6192h118.8352a122.4192 122.4192 0 0 1 122.4192 122.4192v322.56a122.4192 122.4192 0 0 1-122.4192 122.4192H689.152V365.6192z" fill="#7A7AF9" p-id="73199"></path><path d="M252.2112 87.04h352.2048a149.0432 149.0432 0 0 1 149.0432 149.0432v696.9856h-501.248a149.0432 149.0432 0 0 1-149.0432-149.0432v-547.84A149.0432 149.0432 0 0 1 252.2112 87.04z" fill="#CCDAFF" p-id="73200"></path><path d="M206.848 251.7504m47.9744 0l329.2672 0q47.9744 0 47.9744 47.9744l0 1.3824q0 47.9744-47.9744 47.9744l-329.2672 0q-47.9744 0-47.9744-47.9744l0-1.3824q0-47.9744 47.9744-47.9744Z" fill="#7A7AF9" p-id="73201"></path><path d="M206.848 455.3728m47.9744 0l329.2672 0q47.9744 0 47.9744 47.9744l0 1.3824q0 47.9744-47.9744 47.9744l-329.2672 0q-47.9744 0-47.9744-47.9744l0-1.3824q0-47.9744 47.9744-47.9744Z" fill="#7A7AF9" p-id="73202"></path><path d="M206.848 658.9952m47.9744 0l220.4672 0q47.9744 0 47.9744 47.9744l0 1.3824q0 47.9744-47.9744 47.9744l-220.4672 0q-47.9744 0-47.9744-47.9744l0-1.3824q0-47.9744 47.9744-47.9744Z" fill="#7A7AF9" p-id="73203"></path></svg>