<svg t="1720871058433" class="icon" viewBox="0 0 1024 1024" version="1.1" xmlns="http://www.w3.org/2000/svg" p-id="28149" id="mx_n_1720871058433" width="256" height="256"><path d="M64.7 772.6v186h186l548.8-548.7-186.1-186.1zM943.4 266c9.3-9.3 14.5-21.9 14.5-35.1 0-13.1-5.2-25.7-14.5-35l-116.1-116c-9.3-9.3-21.9-14.6-35-14.6-13.2 0-25.7 5.2-35 14.6l-90.8 90.7 186.1 186.1 90.8-90.7zM698.4 882.4H549.3c-20.6 0-37.3 16.7-37.3 37.3 0 20.6 16.7 37.3 37.3 37.3h149.1c20.6 0 37.3-16.7 37.3-37.3 0-20.6-16.7-37.3-37.3-37.3zM922.1 882.4h-74.6c-20.6 0-37.3 16.7-37.3 37.3 0 20.6 16.7 37.3 37.3 37.3h74.6c20.6 0 37.3-16.7 37.3-37.3-0.1-20.6-16.8-37.3-37.3-37.3z" fill="#8a8a8a" p-id="28150"></path></svg>