<svg t="1718524226754" class="icon" viewBox="0 0 1024 1024" version="1.1" xmlns="http://www.w3.org/2000/svg" p-id="5587" width="24" height="24"><path d="M508.8768 489.1648m-393.7792 0a393.7792 393.7792 0 1 0 787.5584 0 393.7792 393.7792 0 1 0-787.5584 0Z" fill="#AD9DFF" p-id="5588"></path><path d="M119.04 544.3072a389.8368 338.5856 0 1 0 779.6736 0 389.8368 338.5856 0 1 0-779.6736 0Z" fill="#9F89FF" p-id="5589"></path><path d="M130.9184 599.5008a377.9584 283.4432 0 1 0 755.9168 0 377.9584 283.4432 0 1 0-755.9168 0Z" fill="#8C6CFA" p-id="5590"></path><path d="M151.6032 654.6432a357.2736 228.2496 0 1 0 714.5472 0 357.2736 228.2496 0 1 0-714.5472 0Z" fill="#805AF9" p-id="5591"></path><path d="M255.488 530.1248c-22.6304 0-40.96-18.3296-40.96-40.96 0-162.304 132.0448-294.4 294.4-294.4 22.6304 0 40.96 18.3296 40.96 40.96s-18.3296 40.96-40.96 40.96c-117.1456 0-212.48 95.3344-212.48 212.48 0 22.5792-18.3296 40.96-40.96 40.96z" fill="#FFFFFF" p-id="5592"></path><path d="M893.0304 837.4272l-88.3712-88.3712c10.9056-12.3904 21.0944-25.4976 30.4128-39.2192-70.8096-104.448-190.464-173.1072-326.144-173.1072s-255.3344 68.6592-326.144 173.1072c70.8096 104.448 190.464 173.1072 326.144 173.1072 78.336 0 151.3472-22.9376 212.6848-62.4128l94.208 94.208c10.6496 10.6496 24.6272 16.0256 38.656 16.0256 13.9776 0 27.9552-5.3248 38.656-16.0256 21.248-21.3504 21.248-55.9616-0.1024-77.312z" fill="#764BF6" p-id="5593"></path></svg>